<svg xmlns="http://www.w3.org/2000/svg" xmlns:xlink="http://www.w3.org/1999/xlink" version="1.1" baseProfile="basic" width="360" height="96.30000305175781" xml:space="preserve" preserveAspectRatio="none"><rect id="backgroundrect" width="100%" height="100%" x="0" y="0" fill="none" stroke="none"/>
<defs>
	<filter id="Adobe_OpacityMaskFilter" filterUnits="userSpaceOnUse" x="-18.600000381469727" y="0" width="386.6000061035156" height="120.30000305175781">
		<feColorMatrix type="matrix" values="1 0 0 0 0  0 1 0 0 0  0 0 1 0 0  0 0 0 1 0"/>
	</filter>
</defs>
<mask maskUnits="userSpaceOnUse" x="-18.600000381469727" y="0" width="386.6000061035156" height="120.30000305175781" id="mask0_1_">
	<path fill="#FFFFFF" filter="url(#Adobe_OpacityMaskFilter)" d="M10-283.7h340c5.5,0,10,4.5,10,10v360c0,5.5-4.5,10-10,10H10   c-5.5,0-10-4.5-10-10v-360C0-279.2,4.5-283.7,10-283.7z" id="svg_1"/>
</mask>

<g class="currentLayer" style=""><title>Layer 1</title><g mask="url(#mask0_1_)" id="svg_2" class="selected" stroke="none" fill="#ffffff" fill-opacity="1" opacity="0.49">
	<path fill="#ffffff" d="M95,4.7C54-0.1,7.6-3.5-18.6,19.3l12,101H368V25.9L299.6,8.7c-23.8,2.5-78.4,12.8-111.6,10.6   C138.2,16,146.1,10.7,95,4.7z" id="svg_3" stroke="none" fill-opacity="1" opacity="0.49"/>
	
		<linearGradient id="SVGID_1_" x1="0.48644185066223145" y1="-0.180855393409729" x2="0.5137135982513428" y2="1.2446179389953613">
		<stop offset="0" style="stop-color:#5AC4D3"/>
		<stop offset="1" style="stop-color:#59ECB7;stop-opacity:0.72"/>
	</linearGradient>
	<path fill="#ffffff" d="M99.6,15.9C34.5-3.3,14.4-0.2,0,4.7V103h368V5.7C354.1-6,306.2,1.3,249.8,18   C172,37.9,130.2,27.3,99.6,15.9z" id="svg_4" stroke="none" fill-opacity="1" opacity="0.49"/>
</g></g></svg>