<?xml version="1.0"?>
<svg xmlns="http://www.w3.org/2000/svg" xmlns:xlink="http://www.w3.org/1999/xlink" xmlns:svgjs="http://svgjs.com/svgjs" version="1.1" width="512" height="512" x="0" y="0" viewBox="0 0 469.686 469.686" style="enable-background:new 0 0 512 512" xml:space="preserve" class=""><g>
<path xmlns="http://www.w3.org/2000/svg" style="" d="M461.672,47.998l-16,16l-8-8l-24,24l-24-24l24-24l-8-8l16-16L461.672,47.998z" fill="#ca1391" data-original="#d77b28" class=""/>
<path xmlns="http://www.w3.org/2000/svg" style="" d="M197.994,243.362l22.639-22.639l28.318,28.318l-22.639,22.639L197.994,243.362z" fill="#e09f53" data-original="#e09f53" class=""/>
<path xmlns="http://www.w3.org/2000/svg" style="" d="M197.992,243.358l28.32,28.32c-14.885,14.869-28.109,31.313-39.44,49.04  c-4.72,7.36-9.12,14.96-13.2,22.8l-47.52-47.52c7.84-4.08,15.44-8.48,22.8-13.2C166.679,271.467,183.123,258.243,197.992,243.358z" fill="#ca1391" data-original="#03aa6f" class=""/>
<path xmlns="http://www.w3.org/2000/svg" style="" d="M126.152,295.998l47.52,47.52c-5.16,9.907-9.728,20.112-13.68,30.56l-1.6-0.56l-62.24-5.68v-56.56  l-0.56-1.6C106.04,305.727,116.245,301.159,126.152,295.998z" fill="#ffdb6f" data-original="#ffdb6f"/>
<path xmlns="http://www.w3.org/2000/svg" style="" d="M159.992,374.078c-0.4,0.96-0.8,1.92-1.12,2.88c-11.463,31.276-29.62,59.671-53.2,83.2l-3.84,3.84  H5.672v-96.16l3.84-3.84c23.529-23.58,51.924-41.737,83.2-53.2c0.96-0.32,1.92-0.72,2.88-1.12l0.56,1.6v56.56l62.24,5.68  L159.992,374.078z" fill="#ca1391" data-original="#03aa6f" class=""/>
<g xmlns="http://www.w3.org/2000/svg">
	<path style="" d="M333.672,236.262c-9.623,0.019-18.856-3.799-25.656-10.608l-4-4l11.312-11.312l4,4   c7.922,7.924,20.768,7.926,28.692,0.004c7.924-7.922,7.926-20.768,0.004-28.692s-20.768-7.926-28.692-0.004   c-0.001,0.001-0.002,0.002-0.004,0.004l-44,44l-11.312-11.312l44-44c14.161-14.176,37.132-14.188,51.308-0.028   c14.176,14.161,14.188,37.132,0.028,51.308C352.544,232.437,343.305,236.265,333.672,236.262z" fill="#d3d3d3" data-original="#d3d3d3"/>
	<path style="" d="M251.328,205.654l-11.312-11.312l44-44c7.924-7.922,7.926-20.768,0.004-28.692   c-7.922-7.924-20.768-7.926-28.692-0.004s-7.926,20.768-0.004,28.692c0.001,0.001,0.002,0.002,0.004,0.004l4,4l-11.312,11.312l-4-4   c-14.167-14.169-14.165-37.141,0.004-51.308s37.141-14.165,51.308,0.004c14.165,14.168,14.165,37.136,0,51.303L251.328,205.654z" fill="#d3d3d3" data-original="#d3d3d3"/>
	<path style="" d="M403.328,165.654l-11.312-11.312l8-8c5.59-5.836,5.391-15.098-0.445-20.688   c-5.659-5.421-14.584-5.421-20.243,0l-16,16l-11.312-11.312l16-16c11.96-11.96,31.352-11.96,43.312,0   c11.96,11.96,11.96,31.352,0,43.312L403.328,165.654z" fill="#d3d3d3" data-original="#d3d3d3"/>
	<path style="" d="M339.328,117.654l-11.312-11.312l16-16c5.59-5.836,5.391-15.098-0.445-20.688   c-5.659-5.421-14.584-5.421-20.243,0l-8,8l-11.312-11.312l8-8c11.96-11.96,31.352-11.96,43.312,0   c11.96,11.96,11.96,31.352,0,43.312l0,0L339.328,117.654z" fill="#d3d3d3" data-original="#d3d3d3"/>
</g>
<path xmlns="http://www.w3.org/2000/svg" d="M254.576,243.382l-28.288-28.288c-3.124-3.123-8.188-3.123-11.312,0l-22.632,22.632  c-29.029,28.946-63.955,51.296-102.4,65.528c-32.314,11.957-61.671,30.738-86.072,55.064l-3.856,3.856l11.312,11.312l3.856-3.856  c20.9-20.802,45.706-37.267,72.992-48.448v46.648c-0.017,4.152,3.145,7.626,7.28,8l53.368,4.856  c-11.191,27.613-27.782,52.714-48.8,73.832l-3.856,3.856l11.312,11.312l3.856-3.856c24.324-24.396,43.105-53.748,55.064-86.056  c14.232-38.445,36.582-73.371,65.528-102.4l22.632-22.632c3.141-3.107,3.169-8.172,0.062-11.314  C254.607,243.413,254.591,243.398,254.576,243.382L254.576,243.382z M104.176,314.798c6.896-2.792,13.704-5.792,20.384-9.104  l39.416,39.416c-3.256,6.568-6.208,13.264-8.968,20l-50.832-4.624V314.798z M171.84,330.35l-32.52-32.52  c21.209-11.98,40.888-26.486,58.608-43.2l17.128,17.128C198.338,289.472,183.827,309.146,171.84,330.35z M226.288,260.35  l-16.968-16.968l11.312-11.32l16.976,16.976L226.288,260.35z" fill="#6c6c6c" data-original="#000000" style="" class=""/>
<path xmlns="http://www.w3.org/2000/svg" d="M408.016,85.654c3.124,3.123,8.188,3.123,11.312,0l18.344-18.344l2.344,2.344c3.124,3.123,8.188,3.123,11.312,0l16-16  c3.123-3.124,3.123-8.188,0-11.312l-40-40c-3.124-3.123-8.188-3.123-11.312,0l-16,16c-3.123,3.124-3.123,8.188,0,11.312l2.344,2.344  l-18.344,18.344c-3.123,3.124-3.123,8.188,0,11.312L408.016,85.654z M419.328,37.654c3.123-3.124,3.123-8.188,0-11.312l-2.344-2.344  l4.688-4.688l28.688,28.688l-4.688,4.688l-2.344-2.344c-3.124-3.123-8.188-3.123-11.312,0l-18.344,18.344l-12.688-12.688  L419.328,37.654z" fill="#6c6c6c" data-original="#000000" style="" class=""/>
<path xmlns="http://www.w3.org/2000/svg" d="M308.016,174.342l-44,44l11.312,11.312l44-44c7.922-7.924,20.768-7.926,28.692-0.004c7.924,7.922,7.926,20.768,0.004,28.692  s-20.768,7.926-28.692,0.004c-0.001-0.001-0.002-0.002-0.004-0.004l-4-4l-11.312,11.312l4,4  c14.169,14.167,37.141,14.165,51.308-0.004c14.167-14.169,14.165-37.141-0.004-51.308  C345.152,160.177,322.184,160.177,308.016,174.342L308.016,174.342z" fill="#6c6c6c" data-original="#000000" style="" class=""/>
<path xmlns="http://www.w3.org/2000/svg" d="M248.016,165.654l11.312-11.312l-4-4c-7.924-7.922-7.926-20.768-0.004-28.692c7.922-7.924,20.768-7.926,28.692-0.004  s7.926,20.768,0.004,28.692c-0.001,0.001-0.002,0.002-0.004,0.004l-44,44l11.312,11.312l44-44  c14.167-14.169,14.165-37.141-0.004-51.308c-14.169-14.167-37.141-14.165-51.308,0.004c-14.165,14.168-14.165,37.136,0,51.303  L248.016,165.654z" fill="#6c6c6c" data-original="#000000" style="" class=""/>
<path xmlns="http://www.w3.org/2000/svg" d="M363.328,141.654l16-16c5.836-5.59,15.098-5.391,20.688,0.445c5.421,5.659,5.421,14.584,0,20.243l-8,8l11.312,11.312l8-8  c11.96-11.96,11.96-31.352,0-43.312c-11.96-11.96-31.352-11.96-43.312,0l-16,16L363.328,141.654z" fill="#6c6c6c" data-original="#000000" style="" class=""/>
<path xmlns="http://www.w3.org/2000/svg" d="M323.328,69.654c5.836-5.59,15.098-5.391,20.688,0.445c5.421,5.659,5.421,14.584,0,20.243l-16,16l11.312,11.312l16-16  c11.96-11.96,11.96-31.352,0-43.312c-11.96-11.96-31.352-11.96-43.312,0l-8,8l11.312,11.312L323.328,69.654z" fill="#6c6c6c" data-original="#000000" style="" class=""/>
<g xmlns="http://www.w3.org/2000/svg">
</g>
<g xmlns="http://www.w3.org/2000/svg">
</g>
<g xmlns="http://www.w3.org/2000/svg">
</g>
<g xmlns="http://www.w3.org/2000/svg">
</g>
<g xmlns="http://www.w3.org/2000/svg">
</g>
<g xmlns="http://www.w3.org/2000/svg">
</g>
<g xmlns="http://www.w3.org/2000/svg">
</g>
<g xmlns="http://www.w3.org/2000/svg">
</g>
<g xmlns="http://www.w3.org/2000/svg">
</g>
<g xmlns="http://www.w3.org/2000/svg">
</g>
<g xmlns="http://www.w3.org/2000/svg">
</g>
<g xmlns="http://www.w3.org/2000/svg">
</g>
<g xmlns="http://www.w3.org/2000/svg">
</g>
<g xmlns="http://www.w3.org/2000/svg">
</g>
<g xmlns="http://www.w3.org/2000/svg">
</g>
</g></svg>
