<?xml version="1.0"?>
<svg xmlns="http://www.w3.org/2000/svg" xmlns:xlink="http://www.w3.org/1999/xlink" xmlns:svgjs="http://svgjs.com/svgjs" version="1.1" width="512" height="512" x="0" y="0" viewBox="0 0 512 512" style="enable-background:new 0 0 512 512" xml:space="preserve" class=""><g><g xmlns="http://www.w3.org/2000/svg"><path d="m320.267 0c-24.692 0-47.212 9.288-64.267 24.554-17.055-15.266-39.575-24.554-64.267-24.554-53.24 0-96.4 43.16-96.4 96.4s43.16 96.4 96.4 96.4c8.284 0 15-6.716 15-15v-34.267c0-8.284-6.716-15-15-15-17.753 0-32.133-14.388-32.133-32.133s14.38-32.133 32.133-32.133 32.133 14.388 32.133 32.133v96.4h64.267v-96.4c0-17.746 14.38-32.133 32.133-32.133s32.134 14.387 32.134 32.133-14.38 32.133-32.133 32.133c-8.284 0-15 6.716-15 15v34.267c0 8.284 6.716 15 15 15 53.24 0 96.4-43.16 96.4-96.4s-43.16-96.4-96.4-96.4z" fill="#f0e6e6" data-original="#f0e6e6" style="" class=""/><path d="m288.133 192.8v-96.4c0-17.746 14.38-32.133 32.133-32.133s32.134 14.387 32.134 32.133-14.38 32.133-32.133 32.133c-8.284 0-15 6.716-15 15v34.267c0 8.284 6.716 15 15 15 53.24 0 96.4-43.16 96.4-96.4s-43.16-96.4-96.4-96.4c-24.692 0-47.212 9.288-64.267 24.554v168.246z" fill="#d2cbd7" data-original="#d2cbd7" style="" class=""/><path d="m223.866 512h-176.732c-8.284 0-15-6.716-15-15v-289.2c0-8.284 6.716-15 15-15h176.732c8.284 0 15 6.716 15 15v289.2c0 8.284-6.716 15-15 15z" fill="#ff54ca" data-original="#4793ff" style="" class=""/><path d="m464.866 512h-176.732c-8.284 0-15-6.716-15-15v-289.2c0-8.284 6.716-15 15-15h176.732c8.284 0 15 6.716 15 15v289.2c0 8.284-6.716 15-15 15z" fill="#ca1391" data-original="#525cdd" style="" class=""/><path d="m223.866 192.8h64.268v319.2h-64.268z" fill="#f0e6e6" data-original="#f0e6e6" style="" class=""/><path d="m256 192.8h32.134v319.2h-32.134z" fill="#d2cbd7" data-original="#d2cbd7" style="" class=""/><path d="m223.866 222.8h-208.866c-8.284 0-15-6.716-15-15v-64.267c0-8.284 6.716-15 15-15h208.866c8.284 0 15 6.716 15 15v64.267c0 8.284-6.716 15-15 15z" fill="#ff6fd2" data-original="#5ecbf1" style="" class=""/><path d="m497 222.8h-208.866c-8.284 0-15-6.716-15-15v-64.267c0-8.284 6.716-15 15-15h208.866c8.284 0 15 6.716 15 15v64.267c0 8.284-6.716 15-15 15z" fill="#ff54ca" data-original="#4793ff" style="" class=""/><path d="m223.866 128.533h64.268v94.267h-64.268z" fill="#fff7f4" data-original="#fff7f4" style="" class=""/><path d="m256 128.533h32.134v94.267h-32.134z" fill="#f0e6e6" data-original="#f0e6e6" style="" class=""/></g></g></svg>
