<svg id="Capa_1" enable-background="new 0 0 512 512" height="512" viewBox="0 0 512 512" width="512" xmlns="http://www.w3.org/2000/svg"><g><path d="m0 498.046c0 5.605 4.544 10.149 10.149 10.149h106.12c19.315 0 34.974-16.428 34.974-36.692v-137.257c0-20.264-15.658-36.692-34.974-36.692h-106.12c-5.605 0-10.149 4.543-10.149 10.148z" fill="#aee49e"/><path d="m116.269 297.554h-30.446c19.315 0 34.974 16.428 34.974 36.692v137.257c0 20.264-15.658 36.692-34.974 36.692h30.446c19.315 0 34.974-16.428 34.974-36.692v-137.257c0-20.265-15.659-36.692-34.974-36.692z" fill="#8bd8a5"/><g><path d="m512 99.711c0 29.086-12.948 55.148-33.395 72.736-16.787 14.44-38.629 11.602-62.51 11.602s-45.722 2.839-62.51-11.602c-20.447-17.588-33.395-43.65-33.395-72.736 0-52.967 42.938-95.905 95.905-95.905s95.905 42.938 95.905 95.905z" fill="#3f6e90"/><path d="m416.095 3.806c-5.181 0-10.265.417-15.223 1.207 45.731 7.295 80.682 46.912 80.682 94.697 0 47.786-34.95 87.403-80.682 94.697 4.958.791 10.042-1.354 15.223-1.354 23.881 0 45.722-6.166 62.51-20.607 20.447-17.587 33.395-43.649 33.395-72.735 0-52.967-42.938-95.905-95.905-95.905z" fill="#355f7f"/><path d="m416.095 115.506c-32.703 0-59.555 25.005-62.508 56.938 16.787 14.44 38.627 23.171 62.508 23.171 23.88 0 45.72-8.731 62.508-23.171-2.952-31.932-29.805-56.938-62.508-56.938z" fill="#f58a97"/><path d="m416.095 115.506c-32.703 0-59.555 25.005-62.508 56.938 16.787 14.44 38.627 23.171 62.508 23.171 23.88 0 45.72-8.731 62.508-23.171-2.952-31.932-29.805-56.938-62.508-56.938z" fill="#f58a97"/><path d="m469.781 145.758c-4.053 7.395-12.669 20.775-28.511 32.078-11.751 8.384-25.474 14.182-40.341 16.563 4.943.786 10.003 1.218 15.167 1.218 23.88 0 45.72-8.731 62.508-23.171-.899-9.709-4.016-18.769-8.823-26.688z" fill="#f07281"/><path d="m416.095 128.726c-18.293 0-33.123-14.83-33.123-33.123v-12.633c0-18.293 14.83-33.123 33.123-33.123 18.293 0 33.123 14.83 33.123 33.123v12.633c0 18.294-14.829 33.123-33.123 33.123z" fill="#ffcebf"/><path d="m416.095 49.847c-5.49 0-10.664 1.344-15.223 3.708 10.631 5.513 17.9 16.612 17.9 29.415v12.633c0 12.803-7.269 23.902-17.9 29.415 4.559 2.364 9.733 3.708 15.223 3.708 18.293 0 33.123-14.83 33.123-33.123v-12.633c0-18.293-14.83-33.123-33.123-33.123z" fill="#ffb09e"/></g><g><path d="m336.922 453.025h46.857c14.521 0 26.292 12.35 26.292 27.584 0 15.234-11.772 27.584-26.292 27.584h-180.076c-28.973 0-52.461-24.641-52.461-55.038v-104.09c0-12.477 4.115-24.57 11.647-34.226l97.081-124.465c12.373-15.864 35.406-16.139 48.121-.576 3.22 3.942 4.259 9.355 2.743 14.297l-21.352 69.59c-1.895 6.176 2.443 12.516 8.627 12.607l85.669 1.225c14.521 0 26.293 12.35 26.293 27.585 0 15.235-11.772 27.585-26.293 27.585h-46.857v110.338z" fill="#ffcebf"/><g><path d="m298.11 286.292c-6.184-.091-10.522-6.431-8.627-12.607l21.352-69.59c1.516-4.942.478-10.355-2.743-14.297-10.031-12.278-26.481-14.69-39.056-7.375 3.165 1.842 6.092 4.292 8.61 7.375 3.221 3.942 4.259 9.355 2.743 14.297l-21.352 69.59c-1.895 6.176 2.443 12.516 8.627 12.607z" fill="#ffb09e"/></g><path d="m336.922 342.686h46.857c14.521 0 26.293 12.35 26.293 27.585 0 15.235-11.772 27.585-26.293 27.585h-46.857z" fill="#ffcebf"/><path d="m383.779 342.686h-30.446c14.521 0 26.293 12.35 26.293 27.585 0 15.235-11.772 27.585-26.293 27.585h30.446c14.521 0 26.293-12.35 26.293-27.585 0-15.235-11.772-27.585-26.293-27.585z" fill="#ffb09e"/><path d="m352.898 287.075c.144.147.281.291.435.442 1.897.05 11.261.389 18.592 8.079 4.758 4.992 7.701 11.888 7.701 19.505 0 15.235-11.772 27.585-26.293 27.585h30.446c14.521 0 26.293-12.35 26.293-27.585 0-15.235-11.772-27.585-26.293-27.585z" fill="#ffb09e"/><path d="m336.922 397.856h46.857c14.521 0 26.293 12.35 26.293 27.585 0 15.235-11.772 27.585-26.293 27.585h-46.857z" fill="#ffcebf"/><g fill="#ffb09e"><path d="m383.779 397.856h-30.446c14.521 0 26.293 12.35 26.293 27.585 0 15.235-11.772 27.585-26.293 27.585h30.446c14.521 0 26.293-12.35 26.293-27.585 0-15.235-11.772-27.585-26.293-27.585z"/><path d="m383.779 453.025h-30.446c14.521 0 26.293 12.35 26.293 27.585 0 15.235-11.772 27.585-26.293 27.585h30.446c14.521 0 26.293-12.35 26.293-27.585 0-15.235-11.772-27.585-26.293-27.585z"/></g></g></g></svg>