<svg id="Capa_1" enable-background="new 0 0 512 512" height="512" viewBox="0 0 512 512" width="512" xmlns="http://www.w3.org/2000/svg"><g><path d="m500.486 404.529h-444.847c-6.359 0-11.514-5.155-11.514-11.514v-274.029c0-6.359 5.155-11.514 11.514-11.514h444.846c6.359 0 11.514 5.155 11.514 11.514v274.028c.001 6.359-5.154 11.515-11.513 11.515z" fill="#95d6a4"/><path d="m500.486 107.471h-25.766c6.359 0 11.514 5.155 11.514 11.514v274.028c0 6.359-5.155 11.514-11.514 11.514h25.765c6.359 0 11.514-5.155 11.514-11.514v-274.027c.001-6.359-5.154-11.515-11.513-11.515z" fill="#78c2a4"/><path d="m44.125 268.43v71.676l232.635-232.635h-71.677z" fill="#b3e59f"/><path d="m88.974 276.297s-27.755 56.895-18.095 94.03c.316 1.213 1.843 1.613 2.72.717l10.483-10.698c.508-.519 1.301-.634 1.936-.281l12.832 7.129c1.113.618 2.469-.232 2.394-1.503-.788-13.413-3.361-69.2 6.682-92.326z" fill="#f9f6f9"/><path d="m77.358 306.012h24.079c1.05-12.72 3.013-24.641 6.49-32.646l-18.953 2.931s-6.123 12.555-11.616 29.715z" fill="#dddaec"/><path d="m120.137 264.241s40.693 48.491 40.302 86.86c-.013 1.254-1.398 2.011-2.466 1.354l-12.76-7.844c-.619-.38-1.416-.3-1.946.195l-10.726 10.021c-.93.869-2.452.372-2.687-.879-2.48-13.206-13.477-67.958-28.816-87.967z" fill="#f9f6f9"/><path d="m147.438 305.929c-11.779-23.187-27.301-41.688-27.301-41.688l-19.099 1.741c6.74 8.792 12.641 24.293 17.35 40.03h27.515c.519 0 1.031-.03 1.535-.083z" fill="#dddaec"/><path d="m73.728 280.442-33.46 15.658c-17.173 8.037-37.219-3.251-39.119-22.116-1.531-15.2-1.531-30.4 0-45.599 1.9-18.865 21.946-30.152 39.119-22.116l33.46 15.658z" fill="#e28086"/><path d="m53.62 214.97v72.43c0 .806.071 1.593.173 2.371l19.934-9.329v-58.515l-19.934-9.329c-.102.779-.173 1.566-.173 2.372z" fill="#dd636e"/><path d="m142.127 280.442 33.46 15.658c17.173 8.037 37.219-3.251 39.119-22.116 1.531-15.2 1.531-30.4 0-45.599-1.9-18.865-21.946-30.152-39.119-22.116l-33.46 15.658z" fill="#e28086"/><path d="m142.127 280.442 19.934 9.329c.102-.778.173-1.565.173-2.371v-72.43c0-.806-.071-1.593-.173-2.371l-19.934 9.329z" fill="#dd636e"/><ellipse cx="361.258" cy="345.237" fill="#ecbe6b" rx="57.647" ry="27.612"/><path d="m361.258 317.625c-5.273 0-10.375.346-15.228.981 24.445 3.2 42.419 13.907 42.419 26.631s-17.973 23.431-42.419 26.631c4.853.635 9.955.981 15.228.981 31.837 0 57.647-12.362 57.647-27.612s-25.809-27.612-57.647-27.612z" fill="#e7a561"/><path d="m132.113 287.453h-48.372c-6.673 0-12.083-5.41-12.083-12.083v-48.371c0-6.673 5.41-12.083 12.083-12.083h48.371c6.673 0 12.083 5.41 12.083 12.083v48.371c0 6.674-5.409 12.083-12.082 12.083z" fill="#e28086"/><g><path d="m449.599 283.004h-193.599c-4.268 0-7.726-3.459-7.726-7.726s3.459-7.726 7.726-7.726h193.6c4.268 0 7.726 3.459 7.726 7.726s-3.459 7.726-7.727 7.726z" fill="#365e7d"/></g><g><path d="m468.6 155.547v66.001c0 3.566-2.887 6.463-6.463 6.463h-76.592c-3.566 0-6.463-2.897-6.463-6.463v-66.001c0-3.576 2.897-6.463 6.463-6.463h76.592c3.576 0 6.463 2.886 6.463 6.463z" fill="#ffe07d"/><path d="m462.139 149.079h-30.196c3.569 0 6.462 2.893 6.462 6.462v66.006c0 3.569-2.893 6.462-6.462 6.462h30.196c3.569 0 6.462-2.893 6.462-6.462v-66.006c.001-3.568-2.893-6.462-6.462-6.462z" fill="#ffd064"/><g><g><path d="m416.173 149.084v31.329c0 4.404-3.566 7.96-7.96 7.96h-29.132v-15.919h21.172v-23.369h15.92z" fill="#ecbe6b"/></g><g><path d="m468.6 167.677v15.919h-22.945v44.414h-15.919v-52.374c0-4.394 3.566-7.96 7.96-7.96h30.904z" fill="#ecbe6b"/></g><g><path d="m416.173 211.582v16.428h-15.919v-16.428c0-4.394 3.555-7.96 7.96-7.96 4.393.001 7.959 3.566 7.959 7.96z" fill="#ecbe6b"/></g></g></g></g></svg>