<svg id="Capa_1" enable-background="new 0 0 512 512" height="512" viewBox="0 0 512 512" width="512" xmlns="http://www.w3.org/2000/svg"><g><path d="m0 386.676v-355.771c0-17.068 13.837-30.905 30.905-30.905h450.189c17.069 0 30.906 13.837 30.906 30.905v355.771z" fill="#eaf6ff"/><path d="m512 386.676v-355.771c0-17.068-13.837-30.905-30.905-30.905h-30.905c17.069 0 30.905 13.837 30.905 30.905v355.771z" fill="#d8ecfe"/><path d="m30.905 512h450.189c17.069 0 30.906-13.837 30.906-30.905v-94.419h-512v94.419c0 17.068 13.837 30.905 30.905 30.905z" fill="#3f6e90"/><path d="m481.095 386.676v94.419c0 17.069-13.837 30.905-30.905 30.905h30.905c17.068 0 30.905-13.837 30.905-30.905v-94.419z" fill="#355f7f"/><g><path d="m271.183 266.226v-43.186h-30.365v43.186c0 9.735-6.814 18.142-16.339 20.157l-22.803 1.555-37.387 7.911c-28.573 6.046-49.016 31.266-49.016 60.472v30.355h281.454v-30.355c0-29.206-20.442-54.426-49.016-60.472l-37.387-7.911-22.803-1.555c-9.524-2.015-16.338-10.422-16.338-20.157z" fill="#f58a97"/><g><path d="m292.308 306.118 24.498 5.183c28.574 6.046 49.016 31.266 49.016 60.472v14.903h30.905v-30.355c0-29.206-20.442-54.426-49.016-60.472l-37.387-7.911z" fill="#f07281"/></g><path d="m201.676 287.938c11.645 17.62 31.622 29.251 54.324 29.251s42.679-11.631 54.324-29.251l-22.803-1.555c-9.525-2.015-16.339-10.422-16.339-20.157v-43.186h-45.818v43.186c0 9.735-6.814 18.142-16.339 20.157z" fill="#ffcebf"/><path d="m272.069 301.836 20.239 4.282c7.137-4.81 13.269-10.997 18.016-18.18l-7.35-1.555c-9.525-2.015-16.339-10.422-16.339-20.157v-43.186h-30.905v58.638c0 9.735 6.814 18.142 16.339 20.158z" fill="#ffb09e"/><g><g><g><path d="m334.276 156.122h-156.554v-94.311c0-17.069 13.837-30.905 30.905-30.905h94.743c17.069 0 30.905 13.837 30.905 30.905v94.311z" fill="#e19974"/><path d="m303.371 30.905h-30.905c17.069 0 30.905 13.837 30.905 30.905v94.311h30.905v-94.31c0-17.069-13.837-30.906-30.905-30.906z" fill="#dc8758"/><path d="m334.276 128.931c-6.699-1.931-17.721-6.033-28.841-15.028-9.759-7.893-15.895-16.563-19.575-22.947-1.118-1.939-3.718-2.379-5.399-.906-7.405 6.488-16.704 13.42-28.075 19.626-29.731 16.229-58.1 19.026-74.665 19.254v50.161c0 32.523 19.636 60.438 47.642 72.42 9.409 4.026 30.636 2.264 30.636 2.264 10.808 0 21.103 1.788 30.468-2.193 28.095-11.943 47.808-39.903 47.808-72.491v-50.16z" fill="#ffcebf"/><path d="m305.435 113.904c-9.781-7.911-15.922-16.601-19.599-22.989-1.11-1.928-3.698-2.332-5.372-.865-4.845 4.245-10.518 8.678-17.035 12.976 3.036 3.597 6.696 7.317 11.101 10.879 5.095 4.121 10.169 7.214 14.816 9.543 8.559 4.289 14.026 12.969 14.026 22.543v33.103c.203 5.168.62 29.745-17.976 50.162-23.31 25.593-56.446 22.638-60.03 22.257 6.335 2.665 14.391 5.136 23.879 5.963 2.35.205 4.606.293 6.756.292 43.231 0 78.277-35.223 78.277-78.674v-50.161c-6.701-1.933-17.723-6.035-28.843-15.029z" fill="#ffb09e"/><g><g><path d="m218.232 174.709c-4.267 0-7.726-3.459-7.726-7.726v-15.183c0-4.267 3.459-7.726 7.726-7.726s7.726 3.459 7.726 7.726v15.183c0 4.267-3.459 7.726-7.726 7.726z" fill="#3f6e90"/></g><g><path d="m293.766 174.709c-4.267 0-7.726-3.459-7.726-7.726v-15.183c0-4.267 3.459-7.726 7.726-7.726s7.726 3.459 7.726 7.726v15.183c0 4.267-3.459 7.726-7.726 7.726z" fill="#3f6e90"/></g></g><g><path d="m255.999 230.779c-.136 0-.273-.001-.41-.002-6.42-.067-12.791-1.746-18.428-4.854-3.737-2.06-5.096-6.76-3.036-10.496 2.061-3.736 6.761-5.096 10.496-3.036 2.376 1.31 6.235 2.882 11.129 2.934 5.088.045 9.141-1.566 11.624-2.934 3.738-2.06 8.437-.701 10.496 3.036 2.06 3.737.701 8.436-3.036 10.496-4.037 2.227-10.56 4.856-18.835 4.856z" fill="#ffb09e"/></g><path d="m343.844 166.07h-9.568v-37.139h9.568c10.23 0 18.522 8.293 18.522 18.522v.094c0 10.23-8.292 18.523-18.522 18.523z" fill="#ffcebf"/><path d="m168.154 166.07h9.568v-37.139h-9.568c-10.23 0-18.522 8.293-18.522 18.522v.094c0 10.23 8.292 18.523 18.522 18.523z" fill="#ffb09e"/></g></g></g></g><g><path d="m254.828 476.081c.758.285 1.588.28 2.343-.013 7.104-2.762 21.23-12.198 27.782-21.449 5.806-8.197 4.947-19.497-2.044-26.658-6.91-7.079-17.76-7.421-24.664-.987-1.268 1.182-3.222 1.182-4.49-.001-6.901-6.432-17.746-6.099-24.664.988-6.991 7.161-7.849 18.461-2.044 26.658 6.948 9.809 20.679 18.794 27.781 21.462z" fill="#f58a97"/><path d="m282.909 427.961c-6.91-7.079-17.76-7.421-24.664-.988-1.268 1.182-3.222 1.182-4.49 0-3.683-3.433-8.49-4.92-13.223-4.5 2.284 1.746 6.627 5.557 9.473 11.941 1.135 2.545 3.651 8.395 2.428 15.691-1.789 10.675-10.247 16.469-11.978 17.603 5.328 3.96 10.725 7.004 14.372 8.374.758.285 1.588.28 2.343-.013 7.104-2.762 21.23-12.198 27.782-21.449 5.807-8.198 4.948-19.498-2.043-26.659z" fill="#f07281"/><g><path d="m142.079 466.709h-21.882c-1.123 0-2.201.543-2.995 1.509l-8.471 10.302c-1.654 2.012-4.336 2.012-5.99 0l-8.471-10.302c-.794-.966-1.872-1.509-2.995-1.509h-21.884c-2.339 0-4.236-2.306-4.236-5.151v-37.759c0-2.845 1.896-5.151 4.236-5.151h72.688c2.339 0 4.236 2.306 4.236 5.151v37.759c0 2.844-1.896 5.151-4.236 5.151z" fill="#fddf80"/><path d="m142.079 418.648h-30.905c2.339 0 4.236 2.306 4.236 5.151v13.326c0 14.249-9.96 26.558-23.895 29.532l-.241.052c1.123 0 2.201.543 2.995 1.509l8.471 10.302c1.647 2.003 4.343 2.003 5.99 0l8.471-10.302c.794-.966 1.872-1.509 2.995-1.509h21.882c2.339 0 4.236-2.306 4.236-5.151v-37.759c.001-2.845-1.895-5.151-4.235-5.151z" fill="#f9d070"/><path d="m440.771 479.524-20.685-11.249c-1.219-.663-2.687-.663-3.906 0l-20.685 11.249c-2.745 1.493-6.074-.516-6.074-3.667v-53.046c0-2.3 1.845-4.164 4.121-4.164h49.181c2.276 0 4.121 1.864 4.121 4.164v53.046c0 3.151-3.328 5.161-6.073 3.667z" fill="#aee49e"/><g><path d="m442.724 418.648h-30.905c2.276 0 4.121 1.864 4.121 4.164v45.594l.241-.131c1.219-.663 2.687-.663 3.906 0l20.685 11.249c2.745 1.493 6.074-.516 6.074-3.666v-53.046c-.002-2.299-1.846-4.164-4.122-4.164z" fill="#8bd8a5"/></g></g></g></g></svg>