<svg id="Capa_1" enable-background="new 0 0 512 512" height="512" viewBox="0 0 512 512" width="512" xmlns="http://www.w3.org/2000/svg"><g><g><g><g><g><g><g><g><path d="m512 61.811v419.284c0 17.068-13.837 30.905-30.905 30.905h-450.19c-17.068 0-30.905-13.837-30.905-30.905v-419.284z" fill="#eaf6ff"/><path d="m481.095 61.811v419.284c0 17.069-13.837 30.905-30.905 30.905h30.905c17.068 0 30.905-13.837 30.905-30.905v-419.284z" fill="#d8ecfe"/><path d="m481.095 0h-450.19c-17.068 0-30.905 13.837-30.905 30.905v30.905h512v-30.905c0-17.068-13.837-30.905-30.905-30.905z" fill="#3f6e90"/><path d="m481.095 0h-30.905c17.069 0 30.905 13.837 30.905 30.905v30.905h30.905v-30.905c0-17.068-13.837-30.905-30.905-30.905z" fill="#355f7f"/><g><circle cx="35.91" cy="30.905" fill="#f58a97" r="7.726"/><circle cx="66.815" cy="30.905" fill="#fddf80" r="7.726"/><circle cx="97.72" cy="30.905" fill="#aee49e" r="7.726"/></g></g></g></g></g></g></g></g><g><g><path d="m295.937 315.965h43.474v75.355h-43.474z" fill="#3f6e90" transform="matrix(.707 -.707 .707 .707 -157.019 328.209)"/><path d="m420.803 456.772c14.523-14.523 14.523-38.071 0-52.594l-49.57-49.569c-6.377-6.377-16.717-6.377-23.094 0l-29.5 29.5c-6.377 6.377-6.377 16.717 0 23.094l49.569 49.569c14.524 14.523 38.071 14.523 52.595 0z" fill="#aee49e"/><path d="m420.803 404.178-49.57-49.57c-6.377-6.377-16.717-6.377-23.094 0l-3.905 3.905 45.664 45.664c14.523 14.523 14.523 38.07 0 52.594-3.233 3.233-6.916 5.742-10.844 7.536 13.718 6.263 30.46 3.754 41.75-7.536 14.522-14.523 14.522-38.07-.001-52.593z" fill="#8bd8a5"/></g><circle cx="215.918" cy="241.76" fill="#b3dafe" r="135.613"/><path d="m311.81 145.867c-30.417-30.417-71.688-43.357-111.346-38.835 29.391 3.352 57.897 16.292 80.44 38.835 52.96 52.96 52.96 138.826 0 191.786-22.543 22.543-51.049 35.483-80.44 38.835 39.658 4.522 80.928-8.418 111.346-38.835 52.961-52.961 52.961-138.826 0-191.786z" fill="#8ac9fe"/><circle cx="215.918" cy="241.76" fill="#eaf6ff" r="93.053"/><g><path d="m215.918 257.086c-31.731 0-57.785 24.262-60.649 55.245 16.288 14.011 37.479 22.482 60.649 22.482s44.361-8.471 60.649-22.482c-2.865-30.983-28.918-55.245-60.649-55.245z" fill="#f58a97"/><path d="m215.918 257.086c-5.342 0-10.516.702-15.453 1.994 3.445.901 6.771 2.097 9.95 3.557 33.092 15.206 26.447 64.581-9.438 70.789-.171.03-.341.059-.512.087 5.028.841 10.186 1.3 15.453 1.3 23.17 0 44.361-8.471 60.649-22.482-2.865-30.983-28.918-55.245-60.649-55.245z" fill="#f07281"/><path d="m215.918 269.913c-17.749 0-32.138-14.389-32.138-32.138v-12.258c0-17.749 14.389-32.138 32.138-32.138 17.749 0 32.138 14.389 32.138 32.138v12.258c0 17.749-14.389 32.138-32.138 32.138z" fill="#ffcebf"/><path d="m215.918 193.379c-5.602 0-10.867 1.436-15.453 3.956 9.944 5.464 16.685 16.035 16.685 28.182v12.258c0 12.148-6.741 22.718-16.685 28.182 4.586 2.52 9.851 3.956 15.453 3.956 17.749 0 32.138-14.389 32.138-32.138v-12.258c0-17.75-14.389-32.138-32.138-32.138z" fill="#ffb09e"/></g></g></g></svg>